<svg width="156" height="23" viewBox="0 0 156 23" fill="none" xmlns="http://www.w3.org/2000/svg">
<path d="M32.7646 1.688C32.7646 1.80133 32.606 1.858 32.2886 1.858C31.9713 1.858 31.756 1.86933 31.6426 1.892C31.28 1.96 30.8833 2.232 30.4526 2.708C29.7046 3.456 28.526 5.24667 26.9166 8.08C25.3073 10.8907 24.004 13.4067 23.0066 15.628C23.0066 15.6507 22.9953 15.6847 22.9726 15.73C22.1566 17.6113 21.7486 18.9033 21.7486 19.606C21.7486 20.286 21.9753 20.626 22.4286 20.626C23.0406 20.626 23.7886 20.2067 24.6726 19.368C25.5793 18.5293 26.3953 17.6 27.1206 16.58C27.234 16.3987 27.336 16.3533 27.4266 16.444C27.54 16.5347 27.5286 16.6707 27.3926 16.852C27.0753 17.2827 26.8713 17.5547 26.7806 17.668C26.69 17.7813 26.5426 17.974 26.3386 18.246C26.1346 18.4953 25.9533 18.7107 25.7946 18.892C25.636 19.0507 25.432 19.2547 25.1826 19.504C24.956 19.7307 24.7406 19.9347 24.5366 20.116C23.562 20.9093 22.712 21.306 21.9866 21.306C20.672 21.306 20.0146 20.6147 20.0146 19.232C20.0146 18.1893 20.434 16.7727 21.2726 14.982C22.134 13.1687 23.2786 10.9473 24.7066 8.318C26.1573 5.68867 27.234 3.90933 27.9366 2.98C27.37 3.00267 26.5426 3.32 25.4546 3.932C24.3893 4.544 23.5166 5.20133 22.8366 5.904C22.1566 6.60667 21.182 7.66067 19.9126 9.066C18.6433 10.4713 17.7366 11.4687 17.1926 12.058C18.5526 12.1033 19.6406 12.126 20.4566 12.126C21.2953 12.126 22.066 11.956 22.7686 11.616C22.6326 11.9787 22.372 12.3187 21.9866 12.636C21.624 12.9307 21.1253 13.1007 20.4906 13.146C19.8786 13.1687 19.176 13.18 18.3826 13.18C17.5893 13.18 16.8413 13.1687 16.1386 13.146C10.5173 18.9487 6.01795 21.85 2.64062 21.85C1.91528 21.85 1.34862 21.6573 0.940617 21.272C0.555284 20.8867 0.362617 20.3993 0.362617 19.81C0.362617 19.674 0.373951 19.47 0.396617 19.198C0.419284 18.926 0.566617 18.4953 0.838617 17.906C1.13328 17.3167 1.31462 17.022 1.38262 17.022C1.56395 16.9993 1.59795 17.09 1.48462 17.294C1.18995 17.9513 1.04262 18.4613 1.04262 18.824C1.04262 19.1867 1.09928 19.4587 1.21262 19.64C1.50728 20.1613 2.08528 20.422 2.94662 20.422C5.64395 20.422 9.62195 17.974 14.8806 13.078C12.2966 12.942 10.7893 12.874 10.3586 12.874C8.63595 12.874 7.49128 13.1573 6.92462 13.724C6.51662 14.132 6.31262 14.676 6.31262 15.356C6.31262 15.5373 6.33528 15.7073 6.38062 15.866C6.04062 15.798 5.80262 15.73 5.66662 15.662C5.55328 15.594 5.47395 15.4807 5.42862 15.322C5.45128 15.1407 5.43995 15.0047 5.39462 14.914C5.34928 14.8007 5.37195 14.676 5.46262 14.54C5.57595 14.404 5.64395 14.302 5.66662 14.234C5.71195 14.1433 5.80262 14.0527 5.93862 13.962C6.09728 13.8487 6.21062 13.7693 6.27862 13.724C6.36928 13.656 6.49395 13.5767 6.65262 13.486C6.83395 13.3953 6.96995 13.3387 7.06062 13.316C7.15128 13.2707 7.28728 13.2027 7.46862 13.112C9.34995 12.296 11.05 11.888 12.5686 11.888C13.498 11.888 14.654 11.922 16.0366 11.99C17.5326 10.5393 19.1986 8.85067 21.0346 6.924C22.8706 4.97467 24.684 3.762 26.4746 3.286H24.6046C19.5273 3.286 16.7733 4.36267 16.3426 6.516C16.32 6.67467 16.3086 6.89 16.3086 7.162C16.3086 7.41133 16.4446 7.61533 16.7166 7.774C16.83 7.842 16.7846 7.92133 16.5806 8.012C16.3766 8.10267 16.2406 8.12533 16.1726 8.08C15.946 7.92133 15.7533 7.62667 15.5946 7.196C15.4586 6.76533 15.3906 6.47067 15.3906 6.312C15.3906 5.60933 15.5833 5.02 15.9686 4.544C16.3766 4.068 16.9093 3.71667 17.5666 3.49C18.224 3.24067 18.8246 3.048 19.3686 2.912C19.9126 2.75333 20.6266 2.64 21.5106 2.572C22.7573 2.504 23.9473 2.47 25.0806 2.47H28.7866C28.832 2.47 28.8433 2.48133 28.8206 2.504C30.4753 1.756 31.518 1.382 31.9486 1.382C32.4926 1.382 32.7646 1.484 32.7646 1.688ZM29.7923 2.436L33.2603 2.572C36.4563 2.54933 39.0629 2.538 41.0803 2.538L40.3663 3.422C39.9129 3.422 39.2329 3.422 38.3263 3.422C37.4423 3.39933 36.7736 3.388 36.3203 3.388C37.1589 3.95467 37.7823 4.782 38.1903 5.87C38.5983 6.93533 38.8023 7.92133 38.8023 8.828L38.7683 10.63C38.7683 10.97 38.7683 11.2873 38.7683 11.582C38.6549 14.0527 38.1903 16.75 37.3743 19.674C37.6236 19.3113 38.3829 18.178 39.6523 16.274C43.0069 11.31 46.1009 7.47933 48.9343 4.782C49.3876 4.35133 50.0223 3.92067 50.8383 3.49C51.6769 3.03667 52.4703 2.81 53.2183 2.81C53.9209 2.81 54.4649 2.92333 54.8503 3.15L54.6463 3.524C54.4649 3.47867 54.1929 3.456 53.8303 3.456C53.4903 3.456 52.9689 3.61467 52.2663 3.932C51.5636 4.24933 50.8836 4.73667 50.2263 5.394C49.5689 6.05133 49.0136 7.07133 48.5603 8.454C48.1069 9.814 47.8236 11.1173 47.7103 12.364C47.6196 13.588 47.5063 14.9367 47.3703 16.41C47.2569 17.8607 47.0983 18.9487 46.8943 19.674C51.8129 12.7153 56.4709 7.4 60.8683 3.728C61.7523 2.98 62.7723 2.31133 63.9283 1.722C65.0843 1.13267 66.1043 0.837998 66.9883 0.837998C67.9176 0.837998 68.4616 1.05333 68.6203 1.484C68.7109 1.73333 68.7563 1.94867 68.7563 2.13C68.7563 2.31133 68.7109 2.538 68.6203 2.81C68.5296 3.082 68.4389 3.32 68.3483 3.524C68.2803 3.70533 68.1783 3.932 68.0423 4.204C67.9063 4.476 67.8043 4.68 67.7363 4.816C67.6909 4.92933 67.5549 4.96333 67.3283 4.918C67.2829 4.87267 67.2489 4.83867 67.2263 4.816C67.4076 4.204 67.4983 3.68267 67.4983 3.252C67.4983 2.436 67.1583 1.97133 66.4783 1.858C66.3423 1.83533 66.1043 1.824 65.7643 1.824C64.9029 1.824 63.4523 2.66267 61.4123 4.34C57.8763 7.15067 54.3969 10.732 50.9743 15.084C48.9343 17.6453 47.4269 19.7647 46.4523 21.442C46.4296 21.4873 46.3956 21.5893 46.3503 21.748C46.3049 21.9067 46.2483 22.02 46.1803 22.088C46.1123 22.156 45.8743 22.2693 45.4663 22.428C45.0809 22.5867 44.8089 22.666 44.6503 22.666C44.4916 22.666 44.3669 22.632 44.2763 22.564C44.0723 22.4733 44.1063 22.156 44.3783 21.612L44.9563 19.708C45.2283 18.7333 45.4436 17.3733 45.6023 15.628C45.7836 13.86 46.0216 12.2507 46.3163 10.8C46.6336 9.34933 47.1209 8.12533 47.7783 7.128C47.3476 7.35467 46.3163 8.49933 44.6843 10.562C44.4576 10.834 44.1403 11.2193 43.7323 11.718C43.3469 12.2167 43.0296 12.6247 42.7803 12.942C41.2389 14.914 39.4029 17.7473 37.2723 21.442C37.2496 21.4873 37.2156 21.5893 37.1703 21.748C37.1249 21.9067 37.0683 22.0087 37.0003 22.054C36.9549 22.122 36.6716 22.2353 36.1503 22.394C35.6289 22.5753 35.2889 22.666 35.1303 22.666C34.9716 22.666 34.8469 22.632 34.7563 22.564C34.5523 22.4733 34.5863 22.156 34.8583 21.612C35.9236 18.0987 36.6263 14.982 36.9663 12.262C37.0569 10.5167 37.1023 9.338 37.1023 8.726C37.1023 8.09133 36.9663 7.20733 36.6943 6.074C36.4449 4.94067 36.0256 4.034 35.4363 3.354H32.8523C29.2936 3.354 27.5143 4.17 27.5143 5.802C27.5143 6.39133 27.6616 6.87867 27.9563 7.264L27.5823 7.536C27.5596 7.49067 27.4009 7.23 27.1063 6.754C26.5396 5.84733 26.2563 5.30333 26.2563 5.122C26.2563 4.918 26.2563 4.77067 26.2563 4.68C26.2563 4 26.4263 3.51267 26.7663 3.218C27.3556 2.69667 28.3643 2.436 29.7923 2.436ZM64.4247 2.504L72.2107 2.368C74.0921 2.368 75.2141 2.52667 75.5767 2.844C75.7807 3.00267 75.8827 3.16133 75.8827 3.32C75.8827 3.47867 75.8601 3.64867 75.8147 3.83C75.7241 4.48733 75.3954 5.23533 74.8287 6.074C74.6701 6.36867 74.4774 6.50467 74.2507 6.482C74.1601 6.482 74.1487 6.32333 74.2167 6.006C74.3074 5.666 74.3527 5.292 74.3527 4.884C74.3527 3.932 73.9901 3.34267 73.2647 3.116C72.9474 3.02533 72.4374 2.98 71.7347 2.98C71.0321 2.98 70.2727 3.00267 69.4567 3.048C68.6634 3.09333 68.1081 3.32 67.7907 3.728C67.0881 4.72533 65.7054 7.00333 63.6427 10.562C63.5521 10.8113 63.6427 10.936 63.9147 10.936L67.8587 11.004C69.6494 11.004 70.8507 10.8453 71.4627 10.528C71.6667 10.392 71.7574 10.4147 71.7347 10.596C71.7121 10.9587 71.5081 11.2873 71.1227 11.582C70.7374 11.854 70.3974 11.99 70.1027 11.99L64.7647 11.854C64.2207 11.854 63.7674 11.8653 63.4047 11.888C63.0647 11.9107 62.8381 12.024 62.7247 12.228C62.6341 12.4093 62.4641 12.7493 62.2147 13.248C60.6507 16.1493 59.8687 18.0193 59.8687 18.858C59.8687 20.0593 61.0021 20.6827 63.2687 20.728C68.0061 20.728 71.4854 19.3113 73.7067 16.478C73.7974 16.342 73.8654 16.3647 73.9107 16.546C73.9561 16.7047 73.9447 16.8293 73.8767 16.92C73.8087 17.0107 73.5594 17.3393 73.1287 17.906C72.6981 18.45 72.4034 18.8127 72.2447 18.994C72.0861 19.1527 71.8481 19.4133 71.5307 19.776C70.9414 20.388 70.3181 20.796 69.6607 21C68.7087 21.272 67.1787 21.408 65.0707 21.408C62.9854 21.408 61.2627 21.34 59.9027 21.204C58.5654 21.068 57.7381 20.762 57.4207 20.286C57.3074 20.1047 57.2507 19.844 57.2507 19.504C57.2507 19.164 57.4207 18.654 57.7607 17.974C58.4181 16.7953 59.3587 15.1407 60.5827 13.01C61.8067 10.8793 62.7701 9.17933 63.4727 7.91C64.1981 6.618 64.8441 5.53 65.4107 4.646C65.9774 3.762 66.6801 3.218 67.5187 3.014C64.5947 3.17267 62.6907 3.43333 61.8067 3.796C60.9454 4.15867 60.3901 4.55533 60.1407 4.986C59.9141 5.394 59.8007 5.836 59.8007 6.312C59.8007 6.788 59.9821 7.13933 60.3447 7.366C60.4354 7.41133 60.4241 7.47933 60.3107 7.57C60.1974 7.638 60.0727 7.638 59.9367 7.57C59.8007 7.47933 59.5854 7.21867 59.2907 6.788C58.8601 6.13067 58.6447 5.50733 58.6447 4.918C58.6447 3.51267 59.9367 2.71933 62.5207 2.538C62.9514 2.51533 63.5294 2.504 64.2547 2.504H64.4247ZM88.9231 5.156V4.476C88.9231 4.068 88.7644 3.75067 88.4471 3.524C87.7897 2.912 86.9171 2.606 85.8291 2.606C84.3331 2.606 83.2451 3.12733 82.5651 4.17C82.1571 4.782 81.9531 5.36 81.9531 5.904C81.9531 6.42533 82.0777 6.992 82.3271 7.604C82.5991 8.216 83.3357 9.27 84.5371 10.766C85.7611 12.262 86.5204 13.3953 86.8151 14.166C87.1097 14.9367 87.2571 15.5827 87.2571 16.104C87.2571 17.5547 86.6677 18.824 85.4891 19.912C84.7411 20.6147 83.8571 21.1587 82.8371 21.544C81.8397 21.952 80.7404 22.156 79.5391 22.156C78.3377 22.156 77.1364 21.85 75.9351 21.238C74.7337 20.626 73.9857 19.6967 73.6911 18.45C73.6457 18.2007 73.6231 17.8833 73.6231 17.498C73.6231 17.09 73.7477 16.5347 73.9971 15.832C74.2691 15.1293 74.6884 14.5627 75.2551 14.132C75.2777 14.1093 75.3231 14.132 75.3911 14.2C75.5271 14.3133 75.5497 14.4153 75.4591 14.506C75.0284 15.0047 74.8131 15.5713 74.8131 16.206C74.8131 17.0447 75.0737 17.8493 75.5951 18.62C76.1164 19.3453 76.8417 19.946 77.7711 20.422C78.7911 20.9433 79.8451 21.204 80.9331 21.204C82.5424 21.204 83.7324 20.6147 84.5031 19.436C84.9337 18.7333 85.1491 18.008 85.1491 17.26C85.1491 16.4893 85.0131 15.73 84.7411 14.982C84.4691 14.2113 83.9024 13.1233 83.0411 11.718C82.2024 10.29 81.7377 9.49667 81.6471 9.338C81.1937 8.47667 80.9671 7.62667 80.9671 6.788C80.9671 5.92667 81.2277 5.122 81.7491 4.374C82.2931 3.626 82.9844 3.03667 83.8231 2.606C84.7524 2.13 85.7157 1.892 86.7131 1.892C88.1184 1.892 89.2631 2.37933 90.1471 3.354C90.2604 3.558 90.3171 3.85267 90.3171 4.238C90.3171 4.60067 90.2377 4.918 90.0791 5.19C89.4897 6.05133 89.1157 6.76533 88.9571 7.332C88.6397 7.536 88.4244 7.57 88.3111 7.434C88.7191 6.618 88.9231 5.85867 88.9231 5.156ZM109.703 7.536C109.703 9.89333 109.068 12.1487 107.799 14.302C106.53 16.4327 104.796 18.1553 102.597 19.47C100.421 20.762 98.0749 21.408 95.5589 21.408C90.4589 21.408 87.9089 19.6173 87.9089 16.036C87.9089 13.86 88.6682 11.5707 90.1869 9.168C90.9576 7.89867 91.8756 6.754 92.9409 5.734C94.0062 4.69133 95.3209 3.84133 96.8849 3.184C98.4489 2.504 100.115 2.164 101.883 2.164C104.58 2.164 106.552 2.606 107.799 3.49C109.068 4.35133 109.703 5.7 109.703 7.536ZM107.765 7.23C107.765 4.19267 105.827 2.674 101.951 2.674C100.024 2.674 98.0862 3.44467 96.1369 4.986C94.2102 6.52733 92.6576 8.36333 91.4789 10.494C90.3002 12.6247 89.7109 14.574 89.7109 16.342C89.7109 19.3793 91.5696 20.898 95.2869 20.898C97.5082 20.898 99.5936 20.1953 101.543 18.79C103.515 17.3847 105.045 15.6393 106.133 13.554C107.221 11.446 107.765 9.338 107.765 7.23ZM132.202 21.306C130.842 21.306 130.162 20.626 130.162 19.266C130.162 18.5407 130.321 17.77 130.638 16.954C130.956 16.138 131.182 15.5487 131.318 15.186C131.568 14.574 132.055 13.554 132.78 12.126C133.914 9.72333 134.809 7.978 135.466 6.89L125.674 17.226C125.606 17.6567 125.312 17.974 124.79 18.178C124.564 18.2687 124.167 18.654 123.6 19.334C123.578 19.3567 123.532 19.368 123.464 19.368C123.396 19.368 123.328 19.3453 123.26 19.3C123.215 19.2547 123.204 19.2207 123.226 19.198C123.816 18.45 124.122 17.4187 124.144 16.104L124.348 6.21C124.348 5.21267 124.62 4.38533 125.164 3.728C124.258 4.408 123.578 5.21267 123.124 6.142C122.943 6.50467 122.456 7.69467 121.662 9.712C119.849 14.2 118.104 17.3393 116.426 19.13C115.86 19.742 115.134 20.2633 114.25 20.694C113.366 21.1247 112.55 21.34 111.802 21.34C111.054 21.34 110.374 21.136 109.762 20.728C108.629 19.9573 108.062 18.722 108.062 17.022C108.062 16.7273 108.108 16.5687 108.198 16.546C108.357 16.5233 108.436 16.614 108.436 16.818C108.436 17.8607 108.686 18.6653 109.184 19.232C109.706 19.776 110.386 20.048 111.224 20.048C112.675 20.048 114.126 19.2433 115.576 17.634C116.8 16.3193 117.922 14.7667 118.942 12.976C119.237 12.4547 119.452 12.0807 119.588 11.854C119.724 11.6047 119.94 11.174 120.234 10.562C120.529 9.95 120.722 9.55333 120.812 9.372C121.515 7.85333 121.923 6.96933 122.036 6.72C122.875 4.90667 124.054 3.77333 125.572 3.32L125.606 3.286H123.736C120.132 3.286 117.979 3.80733 117.276 4.85C117.072 5.16733 116.97 5.47333 116.97 5.768C116.97 6.76533 117.333 7.434 118.058 7.774C118.217 7.842 118.206 7.92133 118.024 8.012C117.866 8.10267 117.684 8.10267 117.48 8.012C117.299 7.89867 116.993 7.604 116.562 7.128C115.95 6.40267 115.644 5.768 115.644 5.224C115.644 4.68 115.814 4.204 116.154 3.796C116.517 3.388 117.242 3.09333 118.33 2.912C119.894 2.61733 121.674 2.47 123.668 2.47C123.736 2.47 123.782 2.47 123.804 2.47H127.476C127.658 2.44733 127.635 2.52667 127.408 2.708C127.204 2.88933 127.08 2.98 127.034 2.98C125.946 3.20667 125.402 4.18133 125.402 5.904C125.402 7.62667 125.493 11.0493 125.674 16.172V16.376L137.472 3.932C138.379 2.98 139.15 2.28867 139.784 1.858C140.442 1.40467 141.088 1.178 141.722 1.178C141.949 1.178 142.062 1.20067 142.062 1.246C142.062 1.26867 142.017 1.33667 141.926 1.45C141.813 1.56333 141.7 1.62 141.586 1.62C140.634 1.62 139.671 2.41333 138.696 4C137.359 6.19867 135.897 9.05467 134.31 12.568C132.724 16.0813 131.93 18.45 131.93 19.674C131.93 20.3087 132.146 20.626 132.576 20.626C132.735 20.626 133.041 20.5353 133.494 20.354C133.97 20.15 134.424 19.844 134.854 19.436C135.308 19.028 135.682 18.654 135.976 18.314C136.271 17.974 136.509 17.6907 136.69 17.464C136.872 17.2373 137.042 17.0107 137.2 16.784C137.382 16.5573 137.484 16.4327 137.506 16.41C137.642 16.206 137.733 16.1947 137.778 16.376C137.824 16.5347 137.801 16.6707 137.71 16.784C137.642 16.8747 137.506 17.056 137.302 17.328C137.098 17.6 136.906 17.838 136.724 18.042C136.566 18.246 136.339 18.518 136.044 18.858C135.772 19.1753 135.512 19.4587 135.262 19.708C134.129 20.7733 133.109 21.306 132.202 21.306ZM144.411 2.504L152.197 2.368C154.078 2.368 155.2 2.52667 155.563 2.844C155.767 3.00267 155.869 3.16133 155.869 3.32C155.869 3.47867 155.846 3.64867 155.801 3.83C155.71 4.48733 155.382 5.23533 154.815 6.074C154.656 6.36867 154.464 6.50467 154.237 6.482C154.146 6.482 154.135 6.32333 154.203 6.006C154.294 5.666 154.339 5.292 154.339 4.884C154.339 3.932 153.976 3.34267 153.251 3.116C152.934 3.02533 152.424 2.98 151.721 2.98C151.018 2.98 150.259 3.00267 149.443 3.048C148.65 3.09333 148.094 3.32 147.777 3.728C147.074 4.72533 145.692 7.00333 143.629 10.562C143.538 10.8113 143.629 10.936 143.901 10.936L147.845 11.004C149.636 11.004 150.837 10.8453 151.449 10.528C151.653 10.392 151.744 10.4147 151.721 10.596C151.698 10.9587 151.494 11.2873 151.109 11.582C150.724 11.854 150.384 11.99 150.089 11.99L144.751 11.854C144.207 11.854 143.754 11.8653 143.391 11.888C143.051 11.9107 142.824 12.024 142.711 12.228C142.62 12.4093 142.45 12.7493 142.201 13.248C140.637 16.1493 139.855 18.0193 139.855 18.858C139.855 20.0593 140.988 20.6827 143.255 20.728C147.992 20.728 151.472 19.3113 153.693 16.478C153.784 16.342 153.852 16.3647 153.897 16.546C153.942 16.7047 153.931 16.8293 153.863 16.92C153.795 17.0107 153.546 17.3393 153.115 17.906C152.684 18.45 152.39 18.8127 152.231 18.994C152.072 19.1527 151.834 19.4133 151.517 19.776C150.928 20.388 150.304 20.796 149.647 21C148.695 21.272 147.165 21.408 145.057 21.408C142.972 21.408 141.249 21.34 139.889 21.204C138.552 21.068 137.724 20.762 137.407 20.286C137.294 20.1047 137.237 19.844 137.237 19.504C137.237 19.164 137.407 18.654 137.747 17.974C138.404 16.7953 139.345 15.1407 140.569 13.01C141.793 10.8793 142.756 9.17933 143.459 7.91C144.184 6.618 144.83 5.53 145.397 4.646C145.964 3.762 146.666 3.218 147.505 3.014C144.581 3.17267 142.677 3.43333 141.793 3.796C140.932 4.15867 140.376 4.55533 140.127 4.986C139.9 5.394 139.787 5.836 139.787 6.312C139.787 6.788 139.968 7.13933 140.331 7.366C140.422 7.41133 140.41 7.47933 140.297 7.57C140.184 7.638 140.059 7.638 139.923 7.57C139.787 7.47933 139.572 7.21867 139.277 6.788C138.846 6.13067 138.631 5.50733 138.631 4.918C138.631 3.51267 139.923 2.71933 142.507 2.538C142.938 2.51533 143.516 2.504 144.241 2.504H144.411Z" fill="#FFEBC9"/>
</svg>
